<svg width="32" height="32" viewBox="0 0 17 17" fill="none" xmlns="http://www.w3.org/2000/svg">
<path fill-rule="evenodd" clip-rule="evenodd" d="M0.810547 2.17168C0.810547 1.2328 1.57166 0.47168 2.51055 0.47168H7.30945C7.69605 0.47168 8.00945 0.78508 8.00945 1.17168V9.20745H15.7176C16.1042 9.20745 16.4176 9.52086 16.4176 9.90745V14.4042C16.4176 15.3431 15.6565 16.1042 14.7176 16.1042H3.51055C2.01938 16.1042 0.810547 14.8953 0.810547 13.4042V2.17168ZM2.51055 1.87168C2.34486 1.87168 2.21055 2.00599 2.21055 2.17168V13.4042C2.21055 14.1221 2.79258 14.7042 3.51055 14.7042H6.59609L6.59604 10.6777L5.49395 10.6777C5.10735 10.6777 4.79395 10.3643 4.79395 9.97771C4.79395 9.59111 5.10735 9.27771 5.49395 9.27771H6.60945V6.61216H5.49395C5.10735 6.61216 4.79395 6.29876 4.79395 5.91216C4.79395 5.52556 5.10735 5.21216 5.49395 5.21216H6.60945V1.87168H2.51055ZM7.99604 10.6075L7.99609 14.7042H14.7176C14.8833 14.7042 15.0176 14.5699 15.0176 14.4042V10.6075H7.99604Z" fill="1365CF"/>
</svg>
