<svg width="32" height="32" viewBox="0 0 16 16" fill="none" xmlns="http://www.w3.org/2000/svg">
<path fill-rule="evenodd" clip-rule="evenodd" d="M3.80889 1.54392C3.36706 1.54392 3.00889 1.90209 3.00889 2.34392V5.37354H7.33521V1.6393C7.33521 1.60695 7.3374 1.57511 7.34165 1.54392H3.80889ZM8.72876 1.54392C8.73301 1.57511 8.7352 1.60695 8.7352 1.6393V5.37354H12.9498V2.34392C12.9498 1.90209 12.5916 1.54392 12.1498 1.54392H8.72876ZM8.03161 6.77354C8.0328 6.77354 8.034 6.77354 8.0352 6.77354C8.03641 6.77354 8.03761 6.77354 8.0388 6.77354H13.142C13.8599 6.77354 14.442 7.35557 14.442 8.07353V11.1827C14.3044 11.1496 14.1608 11.1321 14.0131 11.1321H1.94609C1.79838 11.1321 1.65476 11.1496 1.51719 11.1827V8.07353C1.51719 7.35557 2.09922 6.77354 2.81719 6.77354H8.03161ZM1.60889 2.34392V5.65833C0.724356 6.10172 0.117188 7.01672 0.117188 8.07353V12.961V13.2911V15.1561C0.117188 15.5427 0.430588 15.8561 0.817187 15.8561C1.20379 15.8561 1.51719 15.5427 1.51719 15.1561V13.2911V12.961C1.51719 12.7241 1.70921 12.5321 1.94609 12.5321H14.0131C14.2499 12.5321 14.442 12.7241 14.442 12.961V13.2911V15.1561C14.442 15.5427 14.7554 15.8561 15.142 15.8561C15.5286 15.8561 15.842 15.5427 15.842 15.1561V13.2911V12.961V8.07353C15.842 7.01653 15.2346 6.10139 14.3498 5.65809V2.34392C14.3498 1.12889 13.3648 0.143921 12.1498 0.143921H3.80889C2.59386 0.143921 1.60889 1.12889 1.60889 2.34392Z" fill="#1365CF"/>
</svg>
