<svg width="48" height="48" viewBox="0 0 16 16" fill="none" xmlns="http://www.w3.org/2000/svg">
<path fill-rule="evenodd" clip-rule="evenodd" d="M7.5831 1.98192C8.02184 0.872077 9.09412 0.142944 10.2875 0.142944C11.8936 0.142944 13.1956 1.44495 13.1956 3.05104V6.59857H15.1498C15.3354 6.59857 15.5135 6.67232 15.6447 6.80359C15.776 6.93487 15.8498 7.11291 15.8498 7.29857L15.8498 10.4682C15.8498 11.7976 15.1487 12.9633 14.096 13.6156L14.7405 14.8286C14.9218 15.17 14.7921 15.5938 14.4507 15.7752C14.1093 15.9566 13.6855 15.8268 13.5041 15.4854L12.777 14.1169C12.7768 14.1164 12.7765 14.1159 12.7763 14.1154C12.5726 14.1502 12.3633 14.1682 12.1498 14.1682L3.825 14.1682C3.58444 14.1682 3.34924 14.1453 3.12148 14.1014L3.11492 14.1135L2.34668 15.4968C2.15898 15.8348 1.73283 15.9566 1.39485 15.7689C1.05688 15.5812 0.935057 15.1551 1.12276 14.8171L1.81315 13.574C0.797084 12.9145 0.125 11.7698 0.125 10.4682L0.125 7.29856C0.125 6.91197 0.438401 6.59856 0.825 6.59856L11.7956 6.59857V3.05104C11.7956 2.21814 11.1204 1.54294 10.2875 1.54294C9.66865 1.54294 9.11258 1.92106 8.88506 2.49661L8.70323 2.95655C9.03243 3.31741 9.1765 3.83329 9.04071 4.34013L6.17762 3.57297C6.33432 2.98825 6.81961 2.57934 7.38157 2.49171L7.5831 1.98192ZM12.1498 12.7682C13.42 12.7682 14.4498 11.7385 14.4498 10.4682V7.99857L1.525 7.99856L1.525 10.4682C1.525 11.7385 2.55474 12.7682 3.825 12.7682H12.1498Z" fill="#1365CF"/>
</svg>
